<svg xmlns="http://www.w3.org/2000/svg" width="184" height="263" fill="none"><path fill="#fff" d="M24.624 261.361a8.193 8.193 0 0 1 8.193-8.193H60.74v8.193H24.624Z"/><rect width="33.195" height="79.457" fill="#fff" rx="11.279" transform="matrix(.97494 -.22247 .30013 .9539 16.494 186.811)"/><path fill="#fff" d="M158.068 261.361a8.193 8.193 0 0 0-8.193-8.193h-27.922v8.193h36.115Z"/><rect width="33.195" height="79.457" fill="#fff" rx="11.279" transform="matrix(-.97494 -.22247 -.30013 .9539 166.198 186.811)"/><path fill="#fff" d="M56.051 133.675c2.891-17.108 17.708-29.631 35.058-29.631s32.167 12.523 35.058 29.631l14.48 85.688c3.713 21.967-13.218 41.998-35.496 41.998H77.068c-22.279 0-39.21-20.031-35.497-41.998l14.48-85.688Z"/><path fill="#fff" d="M55.815 182.703c15.004-4.144 29.727-20.283 35.763-32.774l.1 111.432c-11.939-22.756-35.024-78.918-35.863-78.658Z"/><path fill="#fff" d="M126.404 181.064c-14.175-4.198-29.123-18.479-34.826-31.135l.1 111.432c11.278-23.055 33.933-80.56 34.726-80.297ZM72.795 244.974H55.712c-4.717 0-11.389 7.337-11.389 16.387h39.861c0-9.05-6.671-16.387-11.389-16.387Z"/><path stroke="#000" d="M54.288 261.361c0-4.916 0-13.109 3.322-14.748M72.558 261.361c0-4.916 0-13.109-3.322-14.748"/><path fill="#fff" d="M126.968 244.974h-17.083c-4.717 0-11.389 7.337-11.389 16.387h39.861c0-9.05-6.671-16.387-11.389-16.387Z"/><path stroke="#000" d="M108.462 261.361c0-4.916 0-13.109 3.321-14.748M126.731 261.361c0-4.916 0-13.109-3.322-14.748"/><path fill="#fff" d="M34.83 32.467c3.599-17.363 40.732 22.928 40.732 22.928-14.395 3.592-25.858 30.326-28.551 32.972-12.956-5.747-15.78-38.538-12.181-55.9ZM143.404 32.467c-3.598-17.363-40.732 22.928-40.732 22.928 14.395 3.592 25.858 30.326 28.551 32.972 12.956-5.747 15.78-38.538 12.181-55.9Z"/><path fill="#fff" d="M55.983 39.03c15.663-7.094 30.624-4.926 36.146-2.955v180.313c-6.024-2.365-14.559-11.824-18.073-16.258-1.205 2.365 1.506 7.882 3.012 10.346-7.23-3.547-14.057-12.317-16.567-16.258-1.205 1.182.502 6.405 1.506 8.868-8.434-2.365-20.584-21.677-25.604-31.038-2.41 0-1.004 7.883 0 11.824-6.025-4.729-9.539-21.677-10.543-29.559-3.615 0-4.518 6.897-4.518 10.345-4.82-7.094-3.013-27.588-1.506-36.949-1.205-2.365-4.519 1.971-6.025 4.434 0-14.189 7.029-32.516 10.543-39.905-2.41 0-6.025 3.94-7.53 5.912 0-10.642 15.06-29.067 22.591-36.95l-7.53 2.956c3.614-9.459 21.587-17.736 30.122-20.692l-6.024-4.433ZM126.886 39.03c-15.061-7.094-29.447-4.926-34.757-2.955v180.313c5.793-2.365 14-11.824 17.379-16.258 1.158 2.365-1.448 7.882-2.897 10.346 6.952-3.547 13.517-12.317 15.93-16.258 1.159 1.182-.482 6.405-1.448 8.868 8.11-2.365 19.792-21.677 24.62-31.038 2.317 0 .965 7.883 0 11.824 5.792-4.729 9.171-21.677 10.137-29.559 3.476 0 4.344 6.897 4.344 10.345 4.635-7.094 2.897-27.588 1.449-36.949 1.158-2.365 4.344 1.971 5.792 4.434 0-14.189-6.758-32.516-10.137-39.905 2.317 0 5.793 3.94 7.241 5.912 0-10.642-14.482-29.067-21.723-36.95l7.241 2.956c-3.476-9.459-20.757-17.736-28.964-20.692l5.793-4.433Z"/><circle cx="90.623" cy="109.453" r="15.061" fill="#fff"/><path fill="#000" d="M91.38 108.58a1 1 0 0 1-1.513 0l-9.55-11.028a1 1 0 0 1 .756-1.654h19.1a1 1 0 0 1 .756 1.654l-9.55 11.028Z"/><path stroke="#000" d="M90.623 106.441v4.016c0 1.004-2.811 5.02-6.024 5.02M90.623 106.441v4.016c0 1.004 2.812 5.02 6.025 5.02"/><circle cx="71.044" cy="85.355" r="4.518" fill="#000"/><circle cx="110.203" cy="85.355" r="4.518" fill="#000"/></svg>