<svg xmlns="http://www.w3.org/2000/svg" width="112" height="198" fill="none"><path fill="#B8B6B7" d="M15 197a5 5 0 0 1 5-5h17v5H15Z"/><rect width="20.223" height="48.48" fill="#B8B6B7" rx="10.111" transform="matrix(.97485 -.22285 .29965 .95405 10.047 151.507)"/><path fill="#B8B6B7" d="M96.289 197a5 5 0 0 0-5-5h-17v5h22Z"/><rect width="20.223" height="48.48" fill="#B8B6B7" rx="10.111" transform="matrix(-.97485 -.22285 -.29965 .95405 101.241 151.507)"/><path fill="#DEDBDA" d="M34.15 119.051C35.907 108.629 44.931 101 55.5 101c10.568 0 19.593 7.629 21.35 18.051l7.411 43.93C87.263 180.776 73.547 197 55.5 197c-18.047 0-31.763-16.224-28.761-34.019l7.41-43.93Z"/><path fill="#fff" d="M34 149c9.14-2.529 18.109-12.377 21.786-20l.06 68C48.574 183.114 34.511 148.842 34 149Z"/><path fill="#fff" d="M77 148c-8.635-2.562-17.74-11.277-21.214-19l.06 68c6.87-14.069 20.671-49.161 21.154-49ZM44.344 187H33.938C31.064 187 27 191.477 27 197h24.282c0-5.523-4.064-10-6.938-10Z"/><path stroke="#000" d="M33.07 197c0-3 0-8 2.024-9M44.2 197c0-3 0-8-2.024-9"/><path fill="#fff" d="M77.344 187H66.938C64.064 187 60 191.477 60 197h24.281c0-5.523-4.064-10-6.937-10Z"/><path stroke="#000" d="M66.07 197c0-3 0-8 2.024-9M77.2 197c0-3 0-8-2.024-9"/><path fill="#E5E5E2" d="M88.96 96.796C93.118 117.595 77.21 137 56 137s-37.119-19.405-32.96-40.204l8.101-40.503C33.385 45.075 43.235 37 54.675 37h2.65c11.44 0 21.29 8.075 23.534 19.293l8.1 40.503Z"/><path fill="#B8B6B7" d="M21 32h18.976c7.086 0 10.674 8.532 5.718 13.596L26.717 64.984C21.703 70.108 13 66.558 13 59.39V40a8 8 0 0 1 8-8ZM91 32H72.024c-7.086 0-10.674 8.532-5.718 13.596l18.977 19.388C90.297 70.108 99 66.558 99 59.39V40a8 8 0 0 0-8-8Z"/><path fill="#fff" d="M17.5 101.711C27.65 94.352 48.583 96.45 55 100v11c-9.8.775-20.583 12.481-24.375 17-1.4-.387-3.5-5.309-3.5-6.923-2.45 0-5.104 3.55-6.125 5.326-1.05-5.81 1.604-12.749 3.063-15.493-1.75-.775-3.938 1.614-4.813 2.905-1.4-2.324 1.458-7.101 3.063-9.199-1.05-1.936-3.646-2.743-4.813-2.905ZM93.5 101.752C83.35 94.312 61.417 96.412 55 100v11.05c9.8.783 19.833 12.382 23.625 16.95 1.4-.392 5.25-5.041 5.25-6.672 2.45 0 5.104 3.589 6.125 5.383 1.05-5.873-1.604-12.887-3.063-15.661 1.75-.783 3.938 1.632 4.813 2.937 1.4-2.349-1.458-7.178-3.063-9.299 1.05-1.958 3.646-2.773 4.813-2.936Z"/><path stroke="#000" d="M55.5 113v3c-.333 1.333-4.2 6-9 6M55.5 113v3c.375 1.333 3.6 6 9 6"/><ellipse cx="55.5" cy="107" fill="#000" rx="9" ry="6"/><path stroke="#000" d="M42.184 58.5c-2.593 3.935-8.4 11.403-8.178 19.798C34.284 88.79 38.61 87.984 40 87c1.915-1.356 4.438-6.735 2.5-6.735-2.636 0-1.131 7.432 3.726 7.214C50.671 87.28 53.635 80 50.999 80c-2.223 0-.557 7.807 5 7.807 5.558 0 7.445-7.214 4.674-7.214-2.772 0 1.223 7.214 5.002 7.214 3.883 0 6.047-7.214 3.824-7.214-3.24 0-1.048 8.807 5.252 7.214 5.186-1.311 5.492-15.9-5.252-29.307"/></svg>