<svg xmlns="http://www.w3.org/2000/svg" width="140" height="298" fill="none"><path fill="#D69A6E" d="M4 296c0-6.075 4.925-11 11-11h33v11H4Z"/><rect width="38.337" height="97.3" fill="#D69A6E" rx="19.169" transform="matrix(.97145 -.23725 .28204 .9594 -4 204.096)"/><path fill="#D69A6E" d="M136 296c0-6.075-4.925-11-11-11H92v11h44Z"/><rect width="38.524" height="97.773" fill="#D69A6E" rx="19.262" transform="matrix(-.97145 -.23725 -.28204 .9594 144 204.14)"/><path fill="#F6D5A9" d="M43.593 92.013C45.25 77.755 57.327 67 71.68 67c14.426 0 26.54 10.86 28.11 25.2l19.295 176.187C120.641 282.592 109.517 295 95.228 295H46.951c-14.353 0-25.497-12.514-23.84-26.771L43.593 92.013Z"/><path fill="#FCEEC0" d="M43 188c11.632-5.695 24.32-28.832 29-46v153.147C62.745 263.873 43.65 187.643 43 188ZM99 186.579c-10.99-5.77-22.579-27.185-27-44.579v153c8.744-31.686 26.385-108.783 27-108.421ZM48 284H36c-3.314 0-8 5.373-8 12h28c0-6.627-4.686-12-8-12Z"/><path stroke="#000" d="M36 296c0-3 0-8 2-9M47 296c0-3 0-8-2-9"/><path fill="#FCEEC0" d="M104 284H92c-3.314 0-8 5.373-8 12h28c0-6.627-4.686-12-8-12Z"/><path stroke="#000" d="M93 296c0-3 0-8 2-9M104 296c0-3 0-8-2-9"/><path fill="#F6D5A9" d="M36.184 73.531C32.93 52.211 49.432 33 71 33c21.567 0 38.069 19.21 34.816 40.531l-5.048 33.089C98.98 118.341 88.9 127 77.043 127H64.958c-11.858 0-21.938-8.659-23.726-20.38l-5.048-33.089Z"/><ellipse cx="47.649" cy="41.372" fill="#D69A6E" rx="7.535" ry="7.372"/><ellipse cx="26.55" cy="67.91" fill="#D69A6E" rx="10.55" ry="10.32"/><path fill="#D69A6E" d="m19.014 60.538 22.607-23.59L55 43 42.684 96.5l-23.67-35.962Z"/><path fill="#D69A6E" d="M16.184 93 16 67.91 35.684 73l7 19.5-26.5.5Z"/><ellipse cx="29.685" cy="93" fill="#D69A6E" rx="13.5" ry="13"/><ellipse cx="7.535" cy="7.372" fill="#D69A6E" rx="7.535" ry="7.372" transform="matrix(-1 0 0 1 102.071 34)"/><ellipse cx="10.55" cy="10.32" fill="#D69A6E" rx="10.55" ry="10.32" transform="matrix(-1 0 0 1 126.184 57.59)"/><path fill="#D69A6E" d="m123.17 60.538-22.606-23.59L87.184 43 99.5 96.5l23.67-35.962Z"/><path fill="#D69A6E" d="m126 93 .184-25.09L106.5 73l-7 19.5 26.5.5Z"/><ellipse cx="13.5" cy="13" fill="#D69A6E" rx="13.5" ry="13" transform="matrix(-1 0 0 1 126 80)"/><circle cx="57.5" cy="80" r="3" fill="#000"/><circle cx="83.5" cy="80" r="3" fill="#000"/><path stroke="#000" d="M70.5 110v8M59.5 114c0 5 7.645 7.143 11 4M81.5 114c0 5-7.387 7.143-11 4"/><ellipse cx="70.5" cy="109" fill="#000" rx="8" ry="5"/></svg>