<svg xmlns="http://www.w3.org/2000/svg" width="112" height="268" fill="none"><path fill="#B8B6B7" d="M11.05 266a6 6 0 0 1 6-6h19.247v6H11.05Z"/><rect width="22.766" height="62.075" fill="#B8B6B7" rx="11.279" transform="matrix(.96656 -.25645 .2612 .96528 6 207.838)"/><path fill="#B8B6B7" d="M100.951 266a6 6 0 0 0-6-6H75.703v6h25.248Z"/><rect width="22.764" height="62.069" fill="#B8B6B7" rx="11.278" transform="matrix(-.96656 -.25645 -.2612 .96528 106 207.838)"/><path fill="#B8B6B7" d="M28.948 145.305C30.431 131.482 42.098 121 56 121c13.903 0 25.569 10.482 27.052 24.305L93.15 239.44C94.673 253.627 83.555 266 69.288 266H42.712c-14.268 0-25.385-12.373-23.863-26.56l10.1-94.135Z"/><path fill="#45484B" d="M30 193.938c10.802-3.831 22.583-19.392 26.929-30.938L57 266c-8.594-21.034-26.396-72.302-27-72.062Z"/><path fill="#45484B" d="M82 192.982C71.796 189.101 61.034 174.698 56.929 163L57 266c8.12-21.311 24.43-73.261 25-73.018Z"/><path fill="#DEDBDA" d="M41.198 254H29.079C25.733 254 21 259.373 21 266h28.277c0-6.627-4.733-12-8.079-12Z"/><path stroke="#45484B" d="M29.08 266c0-3 0-8 2.019-9M40.188 266c0-3 0-8-2.02-9"/><path fill="#DEDBDA" d="M83.198 254H71.079C67.733 254 63 259.373 63 266h28.277c0-6.627-4.733-12-8.079-12Z"/><path stroke="#45484B" d="M72.09 266c0-3 0-8 2.019-9M83.198 266c0-3 0-8-2.02-9"/><path fill="#B8B6B7" d="M23.067 52.858c0-10.201 4.873-11.998 9.894-10.696 7.03-7.16 12.644 1.852 11.813 8.15 4.736 2.04 4.756 14.318 0 15.298 3.157 6.121 1.316 11.052 0 12.752 1.579 6.12-.658 9.351-1.973 10.201 1.578 6.121-.658 11.052-1.974 12.752 3.158 10.202 0 14.452-1.973 15.302-1.578 10.202-7.235 11.052-9.866 10.202-6.315 8.161-10.524 3.4-11.84 0-9.866 0-9.866-10.202-9.866-12.752-7.893-8.161-4.605-18.703-1.974-22.953C2.151 80.912 9.254 73.26 13.201 70.71c-3.158-12.242 5.262-17.003 9.866-17.853ZM90.21 52.858c0-10.201-4.872-11.998-9.893-10.696-7.03-7.16-12.644 1.852-11.813 8.15-4.736 2.04-4.756 14.318 0 15.298-3.157 6.121-1.316 11.052 0 12.752-1.579 6.12.658 9.351 1.973 10.201-1.579 6.121.658 11.052 1.973 12.752-3.157 10.202 0 14.452 1.974 15.302 1.578 10.202 7.235 11.052 9.866 10.202 6.314 8.161 10.524 3.4 11.84 0 9.866 0 9.866-10.202 9.866-12.752 7.893-8.161 4.605-18.703 1.974-22.953 3.157-10.202-3.947-17.853-7.893-20.403 3.157-12.242-5.262-17.003-9.866-17.853Z"/><path fill="#B8B6B7" d="M30.314 86.15C27.076 69.944 39.473 54.825 56 54.825S84.924 69.943 81.686 86.15l-11.852 59.331a14.107 14.107 0 0 1-27.668 0l-11.852-59.33Z"/><path fill="#B8B6B7" d="M44.046 34.487c3.416-6.592 9.392-5.494 11.954-4.12v51.507s-9.232-.785-16.611 1.639c-5.906 1.94-9.342 7.535-14.056 5.1-3.7-1.913-4.34-6.739-4.34-6.739-6.147-1.648-4.838-8.241-3.415-11.331-2.732-5.77 1.138-9.272 3.415-10.302-1.366-6.593 2.846-10.301 5.123-11.331 0-5.77 5.692-7.211 8.538-7.211 1.366-8.242 6.831-8.242 9.392-7.212Z"/><path fill="#B8B6B7" d="M67.954 34.487c-3.416-6.592-9.392-5.494-11.954-4.12v51.507s9.232-.785 16.611 1.639c5.906 1.94 9.342 7.535 14.056 5.1 3.7-1.913 4.34-6.739 4.34-6.739 6.147-1.648 4.838-8.241 3.415-11.331 2.732-5.77-1.138-9.272-3.415-10.302 1.366-6.593-2.846-10.301-5.123-11.331 0-5.77-5.692-7.211-8.538-7.211-1.367-8.242-6.831-8.242-9.392-7.212Z"/><ellipse cx="39.389" cy="104.55" fill="#000" rx="3.833" ry="3.825"/><ellipse cx="72.611" cy="104.55" fill="#000" rx="3.833" ry="3.825"/><ellipse cx="56" cy="131" fill="#000" rx="8" ry="4"/></svg>