<svg xmlns="http://www.w3.org/2000/svg" width="112" height="182" fill="none"><path fill="#341E11" d="M26 180a5 5 0 0 1 5-5h16v5H26Z"/><rect width="18.598" height="50.745" fill="#341E11" rx="9.299" transform="matrix(.9665 -.25665 .261 .96534 22 132.773)"/><path fill="#341E11" d="M85 180a5 5 0 0 0-5-5H64v5h21Z"/><rect width="18.598" height="50.745" fill="#341E11" rx="9.299" transform="matrix(-.9665 -.25665 -.261 .96534 89.22 132.773)"/><path fill="#482712" d="M43.48 94.162a12.19 12.19 0 0 1 24.04 0l10.072 59.707C79.898 167.538 69.362 180 55.5 180c-13.862 0-24.398-12.462-22.092-26.131L43.48 94.162Z"/><path fill="#D69A6E" d="M47.286 172h-8.572c-2.367 0-5.714 3.582-5.714 8h20c0-4.418-3.347-8-5.714-8Z"/><path stroke="#000" d="M39 180c0-2.333 0-6.222 2-7M48 180c0-2.333 0-6.222-2-7"/><path fill="#D69A6E" d="M72.286 172h-8.572c-2.367 0-5.714 3.582-5.714 8h20c0-4.418-3.347-8-5.714-8Z"/><path stroke="#000" d="M64 180c0-2.333 0-6.222 1-7M72 180c0-2.333 0-6.222-2-7"/><path fill="#482712" d="M33.63 76.517C28.86 61.399 40.147 46 56 46c15.853 0 27.14 15.399 22.37 30.517L68.072 109.15a12.658 12.658 0 0 1-24.143 0L33.63 76.517Z"/><circle cx="43" cy="79" r="3" fill="#000"/><circle cx="69" cy="79" r="3" fill="#000"/><ellipse cx="56" cy="111" fill="#000" rx="8" ry="4"/><ellipse cx="37.649" cy="52.372" fill="#482712" rx="7.535" ry="7.372"/><ellipse cx="16.55" cy="78.91" fill="#482712" rx="10.55" ry="10.32"/><path fill="#482712" d="m9.014 71.538 22.607-23.59L45 54l-12.316 53.5-23.67-35.962Z"/><path fill="#482712" d="M6.184 104 6 78.91 25.684 84l7 19.5-26.5.5Z"/><ellipse cx="19.685" cy="104" fill="#482712" rx="13.5" ry="13"/><ellipse cx="7.535" cy="7.372" fill="#482712" rx="7.535" ry="7.372" transform="matrix(-1 0 0 1 82.07 45)"/><ellipse cx="10.55" cy="10.32" fill="#482712" rx="10.55" ry="10.32" transform="matrix(-1 0 0 1 106.184 68.59)"/><path fill="#482712" d="m103.17 71.538-22.606-23.59L67.184 54 79.5 107.5l23.67-35.962Z"/><path fill="#482712" d="m106 104 .184-25.09L86.5 84l-7 19.5 26.5.5Z"/><ellipse cx="13.5" cy="13" fill="#482712" rx="13.5" ry="13" transform="matrix(-1 0 0 1 106 91)"/><path fill="#D69A6E" d="M50.968 123.789c3.69.964 4.892-1.608 5.032-3.015V76h-1.625s-2.491 11.002-4.718 17.454C47.703 99.117 43 106.91 43 106.91l2.935 12.057c.14 1.206 1.342 3.858 5.033 4.823ZM61.032 123.789c-3.69.964-4.892-1.608-5.032-3.015V76h1.733s2.253 10.978 4.501 17.454C64.192 99.094 69 106.91 69 106.91l-2.936 12.057c-.14 1.206-1.341 3.858-5.032 4.823Z"/><ellipse cx="56" cy="121" fill="#000" rx="8" ry="4"/></svg>