<svg xmlns="http://www.w3.org/2000/svg" width="189" height="293" fill="none"><path fill="#9E5C40" d="M4 291a9 9 0 0 1 9-9h27v9H4Z"/><rect width="32" height="88" x="-3" y="208.282" fill="#9E5C40" rx="16" transform="rotate(-15 -3 208.282)"/><path fill="#9E5C40" d="M185 291a9 9 0 0 0-9-9h-27v9h36Z"/><rect width="32" height="88" fill="#9E5C40" rx="16" transform="scale(-1 1) rotate(-15 695.187 832.141)"/><rect width="160" height="148" x="13" y="143" fill="#9E5C40" rx="65"/><path fill="#DEDBDA" d="M58 279H46c-3.314 0-8 5.373-8 12h28c0-6.627-4.686-12-8-12Z"/><path stroke="#000" d="M46 291c0-3 0-8 2-9M57 291c0-3 0-8-2-9"/><path fill="#DEDBDA" d="M143 279h-12c-3.314 0-8 5.373-8 12h28c0-6.627-4.686-12-8-12Z"/><path stroke="#000" d="M132 291c0-3 0-8 2-9M143 291c0-3 0-8-2-9"/><path fill="#9E5C40" d="M20.555 65.343C21.937 48.757 35.8 36 52.445 36h80.111c16.643 0 30.507 12.757 31.889 29.343l2.14 25.674C169.5 125.998 141.894 156 106.792 156H78.208c-35.102 0-62.708-30.002-59.793-64.983l2.14-25.674Z"/><ellipse cx="80" cy="100.167" fill="#000" rx="3" ry="2.75"/><ellipse cx="106" cy="100.167" fill="#000" rx="3" ry="2.75"/><path fill="#DEDBDA" d="M48.12 142.506C53.766 114.457 80.392 104.481 93 103v71.111c-7.262 0-13.784-1.975-16.137-2.963C74.342 174.605 61.534 183 57.701 183c-4.147 0-16.641-5.432-9.582-40.494ZM137.931 142.506C132.276 114.457 105.621 104.481 93 103v71.111c7.27 0 13.799-1.975 16.155-2.963 2.524 3.457 13.338 11.852 19.184 11.852 3.651 0 16.659-5.432 9.592-40.494Z"/><path stroke="#000" d="M93 103c-12.607 1.481-39.233 11.457-44.88 39.506M72 168c1.833 2.167 8.8 6 20 6M112 168c-1.833 2.167-8.8 6-20 6M93 112v6.5M103 127.5a9.5 9.5 0 0 0-9.5-9.5 9.5 9.5 0 0 0-9.5 9.5"/><path stroke="#000" stroke-linejoin="round" d="M84.5 124c-1.6 0-1.667-4-1.5-6 0 2 2.5 2.833 3.5 3-.5.833-2 2.6-2 3ZM102.5 124c1.6 0 1.667-4 1.5-6 0 2-2.5 2.833-3.5 3 .5.833 2 2.6 2 3Z"/><path stroke="#000" d="M93 103c12.607 1.481 39.233 11.457 44.881 39.506"/><circle cx="85.5" cy="103.5" r="2.5" fill="#000"/><circle cx="100.5" cy="103.5" r="2.5" fill="#000"/><path fill="#000" d="M100.619 101H85.381l-1.905 4 6.19 6c.318.333 1.43 1 3.334 1 1.905 0 3.016-.667 3.333-1 .318-.333 6.191-6 6.191-6l-1.905-4Z"/><path fill="#482712" d="M36 32h18.976c7.086 0 10.674 8.532 5.718 13.596L41.717 64.984C36.703 70.108 28 66.558 28 59.39V40a8 8 0 0 1 8-8ZM148 32h-18.976c-7.086 0-10.674 8.532-5.718 13.596l18.977 19.388C147.297 70.108 156 66.558 156 59.39V40a8 8 0 0 0-8-8Z"/><circle cx="93" cy="243" r="42" fill="#DEDBDA"/></svg>