<svg xmlns="http://www.w3.org/2000/svg" width="124" height="373" fill="none"><path fill="#9D8E7E" d="M4 370.282a8 8 0 0 1 8-8h28v8H4Z"/><rect width="32" height="88" x="-3" y="288.282" fill="#9D8E7E" rx="16" transform="rotate(-15 -3 288.282)"/><path fill="#9D8E7E" d="M119.686 370.282a8 8 0 0 0-8-8h-28v8h36Z"/><rect width="32" height="88" fill="#9D8E7E" rx="16" transform="scale(-1 1) rotate(-15 1031.517 625.279)"/><path fill="#B9A592" d="M36.55 105.883C37.137 97.501 44.108 91 52.511 91H71.49c8.403 0 15.374 6.5 15.96 14.883l17.353 248c.648 9.254-6.684 17.117-15.96 17.117H35.158c-9.277 0-16.609-7.863-15.961-17.117l17.352-248Z"/><path fill="#fff" d="M32 260.879c12.617-6.594 25.924-48 31-67.879v176c-10.04-36.213-30.294-108.534-31-108.121ZM93 260.879c-12.21-6.594-25.088-48-30-67.879v176c9.715-36.213 29.317-108.534 30-108.121ZM32 359H20c-3.314 0-8 5.373-8 12h28c0-6.627-4.686-12-8-12Z"/><path stroke="#000" d="M20 371c0-3 0-8 2-9M31 371c0-3 0-8-2-9"/><path fill="#fff" d="M102 359H90c-3.314 0-8 5.373-8 12h28c0-6.627-4.686-12-8-12Z"/><path stroke="#000" d="M91 371c0-3 0-8 2-9M102 371c0-3 0-8-2-9"/><path fill="#B9A592" d="M32.177 64c-3.18-14.932 8.206-29 23.474-29h12.698c15.268 0 26.654 14.068 23.474 29l-17.21 80.79a12.897 12.897 0 0 1-25.227 0L32.177 64Z"/><circle cx="49" cy="101" r="3" fill="#000"/><circle cx="75" cy="101" r="3" fill="#000"/><ellipse cx="62" cy="147" fill="#000" rx="8" ry="4"/><path fill="#9D8E7E" d="M33 32h14.343c3.564 0 5.348 4.309 2.829 6.828L35.828 53.172c-2.52 2.52-6.828.735-6.828-2.829V36a4 4 0 0 1 4-4ZM91 32H76.657c-3.564 0-5.348 4.309-2.829 6.828l14.344 14.344c2.52 2.52 6.828.735 6.828-2.829V36a4 4 0 0 0-4-4Z"/><path fill="#fff" d="M56.968 155.789c3.69.964 4.892-1.608 5.032-3.015V108h-1.625s-2.491 11.002-4.718 17.454C53.703 131.117 49 138.909 49 138.909l2.935 12.057c.14 1.206 1.342 3.858 5.033 4.823ZM67.032 155.789c-3.69.964-4.892-1.608-5.032-3.015V108h1.733s2.253 10.978 4.501 17.454C70.192 131.093 75 138.909 75 138.909l-2.936 12.057c-.14 1.206-1.341 3.858-5.032 4.823Z"/><ellipse cx="62" cy="153" fill="#000" rx="8" ry="4"/></svg>