<svg xmlns="http://www.w3.org/2000/svg" width="170" height="229" fill="none"><path fill="#482712" d="M39.464 225.969a7.578 7.578 0 0 1 7.578-7.578H71.34v7.578H39.464Z"/><rect width="28.226" height="76.918" fill="#482712" rx="11.279" transform="matrix(.9666 -.2563 .26137 .96524 33.393 154.39)"/><path fill="#482712" d="M129.018 225.969a7.578 7.578 0 0 0-7.578-7.578H97.143v7.578h31.875Z"/><rect width="28.226" height="76.918" fill="#482712" rx="11.279" transform="matrix(-.9666 -.2563 -.26137 .96524 135.422 154.39)"/><path fill="#F6D5A9" d="M65.993 95.893a18.507 18.507 0 0 1 18.248-15.424 18.506 18.506 0 0 1 18.248 15.424l15.275 90.414c3.505 20.746-12.484 39.662-33.523 39.662s-37.027-18.916-33.523-39.661l15.275-90.415Z"/><path fill="#FCEEC0" d="M71.773 213.844h-13.01c-3.593 0-8.674 5.428-8.674 12.125h30.357c0-6.697-5.08-12.125-8.673-12.125Z"/><path stroke="#000" d="M59.196 225.969c0-3.537 0-9.431 3.036-10.61M72.857 225.969c0-3.537 0-9.431-3.035-10.61"/><path fill="#FCEEC0" d="M109.719 213.844h-13.01c-3.593 0-8.673 5.428-8.673 12.125h30.357c0-6.697-5.081-12.125-8.674-12.125Z"/><path stroke="#000" d="M97.143 225.969c0-3.537 0-9.431 1.518-10.61M109.286 225.969c0-3.537 0-9.431-3.036-10.61"/><path fill="#482712" d="M8.653 88.744C15.062 50.63 42.558 46.886 54.574 44.72c4.63-.834 8.011 4.329 2.003 12.992-4.806 6.93-19.218 33.196-19.886 50.52-9.346-2.887-28.038-10.827-28.038-19.49ZM160.347 88.744c-6.674-38.114-34.954-41.858-47.468-44.023-4.821-.834-8.343 4.329-2.086 12.992 5.005 6.93 19.659 33.196 20.354 50.52 9.733-2.887 29.2-10.827 29.2-19.49Z"/><path fill="#F6D5A9" d="M84.807 42.867C45.422 42.867 21 68.8 21 100.792c5.943 11.313 27.024 33.941 63.807 33.941V42.867ZM84.807 42.867c39.385 0 63.807 25.934 63.807 57.925-5.943 11.313-27.024 33.941-63.807 33.941V42.867Z"/><path fill="#fff" d="M49.222 102.583c9.549-9.989 29.242-7.142 35.278-2.323v14.931c-9.22 1.052-19.364 16.942-22.93 23.076-1.318-.526-3.293-7.207-3.293-9.397-2.305 0-4.802 4.819-5.762 7.228-.988-7.886 1.509-17.305 2.88-21.029-1.646-1.051-3.703 2.191-4.527 3.943-1.317-3.154 1.372-9.638 2.881-12.486-.987-2.629-3.43-3.724-4.527-3.943ZM119.778 102.665c-9.301-10.09-29.398-7.244-35.278-2.376v14.988c8.98 1.062 18.173 16.794 21.648 22.99 1.283-.531 4.81-6.838 4.81-9.05 2.245 0 4.677 4.868 5.613 7.302.962-7.966-1.47-17.48-2.806-21.242 1.603-1.062 3.607 2.213 4.409 3.983 1.283-3.186-1.336-9.736-2.806-12.612.962-2.655 3.341-3.762 4.41-3.983Z"/><path stroke="#000" d="M84.5 115.3v5.3c-.588 2.356-3.88 7.067-12.347 7.067M84.5 115.3v5.3c.588 2.356 3.88 7.067 12.347 7.067"/><ellipse cx="84.5" cy="108.233" fill="#000" rx="10.583" ry="7.067"/><ellipse cx="61.569" cy="94.1" fill="#000" rx="5.292" ry="5.3"/><ellipse cx="107.431" cy="94.1" fill="#000" rx="5.292" ry="5.3"/><path fill="#fff" d="M52.75 75.55c11.289-1.413 17.639 2.944 19.403 5.3 6.35 7.773 2.646 10.6 0 7.95-2.117-1.413-9.114 2.944-12.347 5.3v-2.65c-4.234 0-9.996 5.3-12.348 7.95 0-1.413 1.764-4.711 2.646-6.183-2.117-1.414-12.053 1.177-16.757 2.65.706-6.36 9.114-9.128 13.23-9.717l-5.292-3.533c3.528-3.534 12.053-2.65 15.875-1.767l-4.41-5.3ZM116.228 75.55c-11.288-1.413-17.638 2.944-19.402 5.3-6.35 7.773-2.646 10.6 0 7.95 2.116-1.413 9.113 2.944 12.347 5.3v-2.65c4.233 0 9.995 5.3 12.347 7.95 0-1.413-1.764-4.711-2.646-6.183 2.117-1.414 12.054 1.177 16.757 2.65-.705-6.36-9.113-9.128-13.229-9.717l5.292-3.533c-3.528-3.534-12.054-2.65-15.875-1.767l4.409-5.3Z"/></svg>