<svg xmlns="http://www.w3.org/2000/svg" width="140" height="306" fill="none"><path fill="#000" d="M4 304c0-6.075 4.925-11 11-11h33v11H4Z"/><rect width="38.337" height="97.3" fill="#000" rx="19.169" transform="matrix(.97145 -.23725 .28204 .9594 -4 212.096)"/><path fill="#000" d="M136 304c0-6.075-4.925-11-11-11H92v11h44Z"/><rect width="38.524" height="97.773" fill="#000" rx="19.262" transform="matrix(-.97145 -.23725 -.28204 .9594 144 212.14)"/><path fill="#45484B" d="M43.593 100.013C45.25 85.755 57.327 75 71.68 75c14.426 0 26.54 10.86 28.11 25.199l19.295 176.188C120.641 290.592 109.517 303 95.228 303H46.951c-14.353 0-25.497-12.514-23.84-26.771l20.482-176.216Z"/><path fill="#E8904F" d="M43 196c11.632-5.695 24.32-28.832 29-46v153.147C62.745 271.873 43.65 195.643 43 196ZM99 194.579c-10.99-5.77-22.579-27.185-27-44.579v153c8.744-31.686 26.385-108.783 27-108.421ZM48 292H36c-3.314 0-8 5.373-8 12h28c0-6.627-4.686-12-8-12Z"/><path stroke="#000" d="M36 304c0-3 0-8 2-9M47 304c0-3 0-8-2-9"/><path fill="#E8904F" d="M104 292H92c-3.314 0-8 5.373-8 12h28c0-6.627-4.686-12-8-12Z"/><path stroke="#000" d="M93 304c0-3 0-8 2-9M104 304c0-3 0-8-2-9"/><path fill="#45484B" d="M29.894 64.086C34.052 45.898 50.231 33 68.888 33h2.737c19.328 0 35.891 13.82 39.353 32.835l1.031 5.661a16.001 16.001 0 0 1-.866 8.76l-16.478 41.585A24 24 0 0 1 72.353 137h-4.706a24 24 0 0 1-22.312-15.159L29 80.618a16 16 0 0 1-.722-9.46l1.616-7.072Z"/><ellipse cx="40.649" cy="41.372" fill="#000" rx="7.535" ry="7.372"/><ellipse cx="19.55" cy="67.91" fill="#000" rx="10.55" ry="10.32"/><path fill="#000" d="m12.014 60.538 22.606-23.59L48 43 35.684 96.5l-23.67-35.962Z"/><path fill="#000" d="M9.184 93 9 67.91 28.684 73l7 19.5-26.5.5Z"/><ellipse cx="22.685" cy="93" fill="#000" rx="13.5" ry="13"/><ellipse cx="7.535" cy="7.372" fill="#000" rx="7.535" ry="7.372" transform="matrix(-1 0 0 1 107.071 34)"/><ellipse cx="10.55" cy="10.32" fill="#000" rx="10.55" ry="10.32" transform="matrix(-1 0 0 1 131.184 57.59)"/><path fill="#000" d="m128.17 60.538-22.606-23.59L92.184 43 104.5 96.5l23.67-35.962Z"/><path fill="#000" d="m131 93 .184-25.09L111.5 73l-7 19.5 26.5.5Z"/><ellipse cx="13.5" cy="13" fill="#000" rx="13.5" ry="13" transform="matrix(-1 0 0 1 131 80)"/><path fill="#E8904F" d="M65.5 76.92c0 4.188-4.757 7.583-9.081 8.029-5.594.577-6.919-3.84-6.919-8.028 0-4.188 4.156-8.921 8.216-8.921s7.784 4.733 7.784 8.92Z"/><circle cx="57.5" cy="80" r="3" fill="#000"/><circle cx="83.5" cy="80" r="3" fill="#000"/><path fill="#E8904F" d="M51.28 109.429C54.193 97.089 63.997 94.652 70.5 94v28.286c-3.857 0-4.7-.739-5.914-1.173-1.3 1.52 2.957 10.887-12.82 10.887-4.418 0-4.128-7.147-.486-22.571ZM89.72 109.429C86.807 97.089 77.003 94.652 70.5 94v28.286c3.857 0 4.7-.739 5.914-1.173 1.3 1.52-2.957 10.887 12.82 10.887 4.418 0 4.128-7.147.486-22.571Z"/><path stroke="#000" d="M70.5 94c-5.302 0-16.349.5-19 16M70.5 94c5.302 0 16.349.5 19 16M70.5 107c0 5.5-6 6-6 16.5 0 5.183-5.474 8.5-13 8.5-1.5 0-3.8-.8-3-6M70.5 107c0 5.5 6 6 6 16.5 0 5.183 5.474 8.5 13 8.5 1.5 0 3.8-.8 3-6"/><ellipse cx="70.5" cy="96.5" fill="#000" rx="8" ry="3.5"/></svg>