<svg xmlns="http://www.w3.org/2000/svg" width="140" height="331" fill="none"><path fill="#B9A592" d="M4 329c0-6.075 4.925-11 11-11h33v11H4Z"/><rect width="38.337" height="97.3" fill="#B9A592" rx="19.169" transform="matrix(.97145 -.23725 .28204 .9594 -4 237.096)"/><path fill="#B9A592" d="M136 329c0-6.075-4.925-11-11-11H92v11h44Z"/><rect width="38.524" height="97.773" fill="#B9A592" rx="19.262" transform="matrix(-.97145 -.23725 -.28204 .9594 144 237.14)"/><path fill="#B9A592" d="M43.593 125.013C45.25 110.755 57.327 100 71.68 100c14.426 0 26.54 10.859 28.11 25.199l19.295 176.188C120.641 315.592 109.517 328 95.228 328H46.951c-14.353 0-25.497-12.514-23.84-26.771l20.482-176.216Z"/><path fill="#FCEEC0" d="M43 221c11.632-5.695 24.32-28.832 29-46v153.147C62.745 296.873 43.65 220.643 43 221ZM99 219.579c-10.99-5.77-22.579-27.185-27-44.579v153c8.744-31.686 26.385-108.783 27-108.421ZM48 317H36c-3.314 0-8 5.373-8 12h28c0-6.627-4.686-12-8-12Z"/><path stroke="#000" d="M36 329c0-3 0-8 2-9M47 329c0-3 0-8-2-9"/><path fill="#FCEEC0" d="M104 317H92c-3.314 0-8 5.373-8 12h28c0-6.627-4.686-12-8-12Z"/><path stroke="#000" d="M93 329c0-3 0-8 2-9M104 329c0-3 0-8-2-9"/><path fill="#B9A592" d="M30.024 67.22c4.163-18.18 20.34-31.07 38.99-31.07h7.507c19.323 0 35.883 13.813 39.351 32.822l1.564 8.576a16 16 0 0 1-.869 8.775l-18.152 45.721a24 24 0 0 1-22.306 15.144h-7.333a24 24 0 0 1-22.307-15.144L28.461 86.685a16 16 0 0 1-.725-9.476l2.288-9.989Z"/><path fill="#482712" d="M49.666 5.188c4.814 0 4.279 36.255 4.279 36.255-12.287 3.088-22.071 26.065-24.37 28.339-11.059-4.94 9.928-64.594 20.09-64.594ZM94.925 5.188c-4.814 0-4.28 36.255-4.28 36.255 12.288 3.088 22.072 26.065 24.371 28.339 11.058-4.94-9.929-64.594-20.091-64.594Z"/><ellipse cx="59.07" cy="86.331" fill="#000" rx="3.209" ry="3.203"/><ellipse cx="86.884" cy="86.331" fill="#000" rx="3.209" ry="3.203"/><path stroke="#000" d="M73.512 110.887v8.542M61.744 115.158c0 5.338 8.179 7.626 11.768 4.271M85.28 115.158c0 5.338-7.903 7.626-11.768 4.271"/><ellipse cx="73.512" cy="109.82" fill="#000" rx="8.558" ry="5.338"/></svg>